<svg width="287" height="287" xmlns="http://www.w3.org/2000/svg" xmlns:xlink="http://www.w3.org/1999/xlink" xml:space="preserve" overflow="hidden"><g transform="translate(-926 -220)"><path d="M1146.93 367.386C1152.31 389.21 1129.89 410.735 1107.77 401.767 1089.23 395.19 1082.06 373.665 1094.91 355.129 1123.91 316.564 1102.68 255.875 1054.55 234.948 1076.38 276.204 1042.89 314.172 1023.76 330.017 1004.63 345.861 991.771 362.304 987.884 371.871 968.452 419.106 997.451 464.249 1017.18 475.011 1008.21 454.682 999.843 415.818 1035.12 379.345 1035.12 379.345 1024.96 418.209 1047.08 445.116 1069.2 472.022 1068.9 492.052 1068.9 492.052 1103.28 492.052 1135.87 471.424 1149.62 437.642 1160.08 417.611 1160.98 385.922 1146.93 367.386" fill="#FFC300"/></g></svg>