<svg width="287" height="287" xmlns="http://www.w3.org/2000/svg" xmlns:xlink="http://www.w3.org/1999/xlink" xml:space="preserve" overflow="hidden"><g transform="translate(-538 -232)"><path d="M793.609 458.013 756.24 420.643C751.157 415.56 744.281 413.767 737.704 414.962L724.55 401.808C736.209 386.86 743.085 367.727 743.085 347.398 743.085 298.07 702.726 257.71 653.398 257.71 604.07 257.71 563.71 298.07 563.71 347.398 563.71 396.726 604.07 437.085 653.398 437.085 673.727 437.085 692.561 430.209 707.808 418.55L720.963 431.704C719.767 438.281 721.56 445.157 726.643 450.24L764.013 487.609C768.198 491.795 773.579 493.887 778.96 493.887 784.342 493.887 789.723 491.795 793.908 487.609 801.681 479.239 801.681 466.084 793.609 458.013ZM653.099 418.849C613.636 418.849 581.349 386.561 581.349 347.099 581.349 307.636 613.636 275.349 653.099 275.349 692.561 275.349 724.849 307.636 724.849 347.099 724.849 386.561 692.561 418.849 653.099 418.849Z" fill="#FFC300"/></g></svg>